<svg version="1.1" xmlns="http://www.w3.org/2000/svg" viewBox="0 0 1024 1024"><path d="M704 128c129.621 0 234.667 106.667 234.667 256 0 298.667-320 469.333-426.667 533.333-84.352-50.602-302.208-167.978-389.59-362.624l-79.743-0.042v-85.334h51.626A406.827 406.827 0 0 1 85.333 384C85.333 234.667 192 128 320 128c79.36 0 149.333 42.667 192 85.333C554.667 170.667 624.64 128 704 128z m0 85.333c-45.91 0-95.573 24.32-131.67 60.331L512 333.994l-60.33-60.33c-36.097-36.01-85.76-60.33-131.67-60.33-82.773 0-149.333 70.655-149.333 170.666 0 29.227 3.84 57.685 11.392 85.333h92.458l88.15-146.944 128 213.334 39.85-66.39h194.816v85.334H578.816l-88.15 146.944-128-213.334-39.85 66.39H217.941c33.707 58.624 84.694 113.834 150.912 166.528 31.787 25.258 65.707 48.853 103.296 72.533 12.758 8.064 25.387 15.787 39.851 24.405 14.464-8.618 27.093-16.341 39.85-24.362a1149.995 1149.995 0 0 0 103.254-72.576c127.19-101.12 198.23-211.627 198.23-337.195 0-100.693-65.58-170.667-149.334-170.667z" fill="#CDCDCD" /></svg>